<?xml version="1.0" encoding="utf-8"?>
<!-- Generator: Adobe Illustrator 21.1.0, SVG Export Plug-In . SVG Version: 6.00 Build 0)  -->
<svg version="1.1" id="Layer_1" xmlns="http://www.w3.org/2000/svg" xmlns:xlink="http://www.w3.org/1999/xlink" x="0px" y="0px"
	 width="80px" height="80px" viewBox="0 0 300 300" style="enable-background:new 0 0 300 300;" xml:space="preserve">
<style type="text/css">
	.st0{fill:#F8B1B2;stroke:#333333;stroke-width:3;stroke-linecap:round;stroke-linejoin:round;stroke-miterlimit:10;}
	.st1{fill:#6EB957;stroke:#333333;stroke-width:3;stroke-linecap:round;stroke-linejoin:round;stroke-miterlimit:10;}
	.st2{fill:#333333;}
	.st3{fill:#B0B4D7;stroke:#333333;stroke-width:3;stroke-linecap:round;stroke-linejoin:round;stroke-miterlimit:10;}
	.st4{fill:#B1D9A4;stroke:#333333;stroke-width:3;stroke-linecap:round;stroke-linejoin:round;stroke-miterlimit:10;}
	.st5{fill:#5FB4B6;stroke:#333333;stroke-width:3;stroke-linecap:round;stroke-linejoin:round;stroke-miterlimit:10;}
	.st6{fill:#3ABFEF;stroke:#333333;stroke-width:3;stroke-linecap:round;stroke-linejoin:round;stroke-miterlimit:10;}
	.st7{fill:#BABBC2;stroke:#333333;stroke-width:3;stroke-linecap:round;stroke-linejoin:round;stroke-miterlimit:10;}
	.st8{fill:#F79321;stroke:#333333;stroke-width:3;stroke-linecap:round;stroke-linejoin:round;stroke-miterlimit:10;}
</style>
<g>
	<ellipse class="st0" cx="234.8" cy="128.9" rx="63.7" ry="63.2"/>
	<ellipse class="st1" cx="200.8" cy="41.3" rx="40.1" ry="39.8"/>
	<g>
		<path class="st2" d="M198.5,69.4v-6.9c-4-0.1-8.1-1.3-10.5-3l1.6-4.6c2.5,1.6,6,2.9,9.9,2.9c4.9,0,8.1-2.8,8.1-6.7
			c0-3.8-2.7-6.1-7.7-8.1c-7-2.7-11.3-5.9-11.3-11.8c0-5.7,4-10,10.3-11v-6.9h4.2v6.6c4.1,0.1,6.9,1.2,8.9,2.4l-1.7,4.5
			c-1.4-0.8-4.2-2.3-8.6-2.3c-5.3,0-7.3,3.1-7.3,5.9c0,3.6,2.5,5.3,8.5,7.8c7,2.9,10.6,6.4,10.6,12.5c0,5.4-3.8,10.5-10.8,11.6v7.1
			H198.5z"/>
	</g>
	<ellipse class="st3" cx="176.7" cy="260.8" rx="38" ry="37.7"/>
	<ellipse class="st4" cx="213.8" cy="212.8" rx="45.7" ry="45.3"/>
	<ellipse class="st5" cx="42.5" cy="228.1" rx="41" ry="40.6"/>
	<ellipse class="st6" cx="56.3" cy="108.6" rx="42.8" ry="42.4"/>
	<ellipse class="st7" cx="133" cy="90.5" rx="53.1" ry="52.6"/>
	<ellipse class="st8" cx="118.5" cy="192" rx="64.5" ry="64"/>
	<path class="st2" d="M137.4,189.9c4.4-2.3,7.3-6.3,6.6-13c-0.9-9.2-8.4-12.3-18.4-13.1V151h-7.8v12.4c-2,0-4.1,0.1-6.2,0.1V151H104
		v12.7c-2.9,0.1-6.2,0-15.6,0v8.3c6.1-0.1,9.4-0.5,10.1,3.4v34.8c-0.5,3.1-3,2.7-8.5,2.6l-1.6,9.2c14.2,0,15.6,0.1,15.6,0.1v10.9
		h7.8v-10.7c2.1,0.1,4.2,0.1,6.2,0.1v10.7h7.8v-10.9c13-0.7,21.7-4,22.9-16.3C149.5,196.1,144.8,191.7,137.4,189.9L137.4,189.9z
		 M111.9,172.6c4.4,0,18.1-1.4,18.1,7.8c0,8.7-13.7,7.7-18.1,7.7V172.6L111.9,172.6z M111.9,212.9v-17.1c5.2,0,21.3-1.5,21.3,8.5
		C133.2,214,117.1,212.9,111.9,212.9L111.9,212.9z"/>
	<path class="st2" d="M63.4,113.2c-0.6,0-1.2,0-1.8,0.1c-1.7-1.5-3.1-3.3-3-5.4c0.1-1.6,0.9-3,2-4.1c0.8,0.2,1.6,0.3,2.5,0.3
		c6.5,0,11.8-5.3,11.8-11.8c0-6.5-5.3-11.8-11.8-11.8s-11.8,5.3-11.8,11.8c0,3,1.1,5.8,3,7.9c-0.3,1.6-0.8,3-1.9,3.7
		c-1.2,0.8-3.5,0.9-6.1,0.7c-1.7-4.4-6-7.5-11-7.5c-6.5,0-11.8,5.3-11.8,11.8s5.3,11.8,11.8,11.8c5.4,0,9.9-3.6,11.4-8.5
		c2.1-0.3,4-0.3,4.9,0.5c1.3,1,1.9,3.1,2.2,5.5c-1.4,1.9-2.2,4.3-2.2,6.9c0,6.5,5.3,11.8,11.8,11.8s11.8-5.3,11.8-11.8
		S70,113.2,63.4,113.2z"/>
	<g>
		<polygon class="st2" points="233.2,208.9 213.7,178.1 193.7,208.9 213.7,200.6 		"/>
		<polygon class="st2" points="194.5,217.4 214,247.5 234,217.4 214,229.4 		"/>
		<polygon class="st2" points="234,213.4 213.7,205 193.7,213.4 213.7,225.4 		"/>
	</g>
	<g>
		<g>
			<polygon class="st2" points="116,91.7 131.8,59.1 131.8,100 			"/>
		</g>
		<g>
			<polygon class="st2" points="148.7,91.7 132.8,100 132.8,59.1 			"/>
		</g>
		<g>
			<polygon class="st2" points="116,92.9 131.8,100.8 131.8,113.6 			"/>
		</g>
		<g>
			<polygon class="st2" points="148.7,92.9 132.8,113.6 132.8,100.8 			"/>
		</g>
	</g>
	<polygon class="st2" points="228,142 230.4,124.9 245.4,114.1 245.4,103.7 232,113.4 234.7,93.6 218.3,93.6 214.8,125.7 
		204.3,133.2 204.3,143.6 213.6,137 211.6,155 228,155 265.2,155 265.2,142 	"/>
	<g>
		<g>
			<g>
				<path class="st2" d="M193.6,264.8l-4.3,12.5c-0.9,2.6-3.4,4.4-6.2,4.4h-26.4l2-6.6h24.4l4.3-12.4h-24.8l2-6.6h22.8
					c2.1,0,4.1,1,5.3,2.7C194,260.6,194.3,262.8,193.6,264.8z"/>
			</g>
		</g>
		<g>
			<g>
				<polygon class="st2" points="173,265.6 173,266.1 171.1,272.2 153.4,272.2 155.4,265.6 				"/>
			</g>
		</g>
	</g>
	<g>
		<path class="st2" d="M53.7,235.3L53.7,235.3c-0.8-0.2-1.6,0.1-2,0.7c-1.8,3.3-3.9,5.6-6.2,6.9c-2,1.2-4.8,1.9-8.3,2.1
			c-0.8,0.1-1.7,0.1-2.7,0.1h-0.9h-6.5c-1.3,0-2.1-1.4-1.3-2.3l7.8-9.3l3.6-4.3l15.2-18.3c0.2-0.3,0.3-0.6,0.3-0.9v-0.5
			c0-0.8-0.7-1.4-1.6-1.4h-14v-6.5h-3.6v6.5h-7.6v-3.6c0-0.3-0.2-0.5-0.5-0.5h-2c-0.2,0-0.4,0.1-0.5,0.3l-2.2,4.6c0,0,0,0,0,0.1
			l-4.3,8.5c-0.4,0.7,0,1.6,0.7,1.9c0.7,0.3,1.6,0.1,2.1-0.6c1.2-1.9,2.4-3.3,3.5-4.2c1.3-1.1,2.9-2,4.7-2.5c1.4-0.4,3.9-0.7,6-0.8
			c0.7,0,1.3,0,2.1,0h1.5h4.5c1.3,0,2,1.4,1.3,2.3l-5.7,6.9l-3.6,4.3l-17.3,20.8c-0.2,0.2-0.3,0.6-0.3,0.9v0.5
			c0,0.8,0.7,1.4,1.6,1.4h16.1v6.4h3.6v-6.4H49c0.7,0,1.3-0.4,1.5-0.9l4.1-10.1C55,236.4,54.5,235.6,53.7,235.3z"/>
	</g>
</g>
</svg>
